# xmcd
#
# Track frame offsets: 
#        150
#        13489
#        25581
#        37650
#        49136
#        61429
#        73723
#        86525
#        99003
#        110134
#        122118
#        134085
#        145356
#        157070
#        169398
#        182483
#        195926
#
# Disc length: 2784 seconds
#
# Revision: 2
# Processed by: cddbd v1.5.2PL0 Copyright (c) Steve Scherf et al.
# Submitted via: ExactAudioCopy v0.95b2
#
DISCID=ee0ade11
DTITLE=Bill Gaither - The Essential (Disk 2 of 2)
DYEAR=2001
DGENRE=Blues
TTITLE0=Jungle Man Blues
TTITLE1=Set 'Em
TTITLE2=Evil Hearted Me
TTITLE3=Racket Blues
TTITLE4=Worried Life Blues
TTITLE5=Tired of Your Trifling Ways
TTITLE6=Greyhound Blues
TTITLE7=New So Much Trouble
TTITLE8=Evil Yalla Woman
TTITLE9=You Done Ranked Yourself With Me
TTITLE10=Strange Woman
TTITLE11=Georgia Barrel House
TTITLE12=I'm Behind the Eight Ball Now
TTITLE13=Mean Old World To Live In
TTITLE14='Bout the Break of Day
TTITLE15=You Done Lost Your Swing
TTITLE16=It's a Sad Story
EXTD=LABEL =Allegro Corporation\nID =cbl200018\nUPC =723724-057425\n
EXTD=COPYRIGHT =2001\n*****\nwilliam hale\n*****\nThe cd cover lists 
EXTD=18 tracks but there are only 17 on the cd. \nTrack # 11 is given 
EXTD=as "Please Baby" but that track is NOT on the cd. Instead the cd 
EXTD=skips to what is listed as # 12 - "Strange Woman".
EXTT0=
EXTT1=with Honey Hill
EXTT2=
EXTT3=
EXTT4=
EXTT5=
EXTT6=
EXTT7=
EXTT8=
EXTT9=
EXTT10=
EXTT11=
EXTT12=
EXTT13=
EXTT14=
EXTT15=
EXTT16=
PLAYORDER=
